<svg width="426" height="136" viewBox="0 0 426 136" fill="none" xmlns="http://www.w3.org/2000/svg">
<path d="M425.5 4.5C425.5 2.01472 423.485 -4.76837e-07 421 0C418.515 4.76837e-07 416.5 2.01472 416.5 4.5L425.5 4.5ZM30.9095 134.271C32.7161 135.978 35.5642 135.897 37.2709 134.09L65.0847 104.652C66.7915 102.845 66.7107 99.997 64.9042 98.2902C63.0976 96.5834 60.2495 96.6642 58.5428 98.4708L33.8194 124.639L7.65156 99.9153C5.84505 98.2085 2.99695 98.2893 1.29016 100.096C-0.41663 101.902 -0.335789 104.75 1.47073 106.457L30.9095 134.271ZM416.5 4.5C416.5 19.8789 410.956 29.2371 401.706 35.0646C392.047 41.1497 377.745 43.7711 359.589 43.8829C323.237 44.1068 274.936 34.3904 225.688 27.4811C177.007 20.6515 127.407 16.5841 90.2852 29.1355C71.547 35.4711 55.7809 46.1022 44.9806 62.8535C34.2111 79.5572 28.6719 101.892 29.5018 131.128L38.4982 130.872C37.703 102.858 43.0389 82.4741 52.5447 67.7304C62.0198 53.0345 75.9296 43.4898 93.1679 37.6614C127.999 25.8847 175.555 29.536 224.437 36.3939C272.752 43.1721 322.419 53.112 359.645 52.8827C378.278 52.768 394.668 50.1355 406.503 42.6795C418.747 34.966 425.5 22.4961 425.5 4.5L416.5 4.5Z" fill="white"/>
</svg>
