<svg width="300" height="103" viewBox="0 0 300 103" fill="none" xmlns="http://www.w3.org/2000/svg">
<path d="M6 3C6 1.34315 4.65685 0 3 0C1.34315 0 0 1.34315 0 3H6ZM180 71L177.979 68.7831L180 71ZM294.278 88.4918C295.931 88.6142 297.369 87.3739 297.492 85.7216L299.486 58.7954C299.609 57.1431 298.368 55.7044 296.716 55.582C295.064 55.4596 293.625 56.6998 293.503 58.3522L291.73 82.2866L267.795 80.5137C266.143 80.3913 264.704 81.6315 264.582 83.2839C264.46 84.9362 265.7 86.3749 267.352 86.4973L294.278 88.4918ZM0 3C0 29.6153 7.79981 50.6997 20.5483 66.4743C33.278 82.2258 50.7968 92.5057 69.9697 97.7951C108.195 108.341 153.538 99.1871 182.021 73.2169L177.979 68.7831C151.176 93.2212 108.019 102.068 71.5654 92.0112C53.3991 86.9995 37.0341 77.3278 25.2149 62.703C13.4144 48.1014 6 28.3847 6 3H0ZM182.021 73.2169C194.385 61.9439 206.611 56.4225 218.125 54.5713C229.66 52.7168 240.68 54.5151 250.65 58.1899C270.679 65.5722 286.156 80.4156 292.228 87.4588L296.772 83.5412C290.344 76.0844 274.071 60.4278 252.725 52.5601C242.008 48.6099 229.934 46.5957 217.172 48.6474C204.389 50.7025 191.115 56.8061 177.979 68.7831L182.021 73.2169Z" fill="white"/>
</svg>
